<svg width="44" height="32" viewBox="0 0 44 32" fill="none" xmlns="http://www.w3.org/2000/svg">
<path fill-rule="evenodd" clip-rule="evenodd" d="M5.90291 0H7.80583C10.015 0 11.8058 1.79086 11.8058 4C11.8058 6.20914 13.5967 8 15.8058 8H31.3398C37.9672 8 43.3398 13.3726 43.3398 20C43.3398 26.6274 37.9672 32 31.3398 32H16C7.16345 32 0 24.8366 0 16V5.90291C0 2.64282 2.64283 0 5.90291 0ZM19.1844 19.7282C19.1844 21.2724 17.9325 22.5243 16.3883 22.5243C14.844 22.5243 13.5921 21.2724 13.5921 19.7282C13.5921 18.1839 14.844 16.932 16.3883 16.932C17.9325 16.932 19.1844 18.1839 19.1844 19.7282ZM29.4367 22.5243C30.981 22.5243 32.2329 21.2724 32.2329 19.7282C32.2329 18.1839 30.981 16.932 29.4367 16.932C27.8925 16.932 26.6406 18.1839 26.6406 19.7282C26.6406 21.2724 27.8925 22.5243 29.4367 22.5243Z" fill="#B577F7"/>
</svg>
