<svg width="71" height="52" viewBox="0 0 71 52" fill="none" xmlns="http://www.w3.org/2000/svg">
<path fill-rule="evenodd" clip-rule="evenodd" d="M9.59223 0H12.6845C16.2743 0 19.1845 2.91015 19.1845 6.5C19.1845 10.0899 22.0946 13 25.6845 13H50.9272C61.6967 13 70.4272 21.7304 70.4272 32.5C70.4272 43.2696 61.6968 52 50.9272 52H26C11.6406 52 0 40.3594 0 26V9.59223C0 4.29459 4.29459 0 9.59223 0ZM31.1748 32.0582C31.1748 34.5677 29.1405 36.6019 26.6311 36.6019C24.1217 36.6019 22.0874 34.5677 22.0874 32.0582C22.0874 29.5488 24.1217 27.5146 26.6311 27.5146C29.1405 27.5146 31.1748 29.5488 31.1748 32.0582ZM47.8349 36.6019C50.3443 36.6019 52.3786 34.5677 52.3786 32.0582C52.3786 29.5488 50.3443 27.5146 47.8349 27.5146C45.3255 27.5146 43.2912 29.5488 43.2912 32.0582C43.2912 34.5677 45.3255 36.6019 47.8349 36.6019Z" fill="white"/>
</svg>
